<svg xmlns="http://www.w3.org/2000/svg" width="93" height="92" viewBox="0 0 93 92" fill="none">
  <path d="M2.56342 38.5596C2.35835 39.6197 0.890711 39.7928 0.531071 38.7327C0.475977 38.5717 0.494343 38.2664 0.584636 37.8184C1.47379 33.4671 2.63382 29.5988 4.52691 25.8505C7.36883 20.2235 11.1703 15.3649 15.9283 11.2749C16.3155 10.9422 17.1556 10.2801 18.4473 9.28983C19.4328 8.535 20.3067 7.91838 21.0688 7.43997C24.5841 5.23471 28.1331 3.51091 31.7142 2.27007C34.9295 1.15681 38.4402 0.414134 42.2493 0.0450732C42.5967 0.0116603 42.8477 0.0222904 43.0038 0.0769661C43.9465 0.406539 43.922 1.51373 43.1079 1.97847C43.0237 2.02859 42.8018 2.06959 42.4437 2.10453C37.0108 2.63306 32.0509 3.97109 27.5622 6.11863C15.4202 11.9325 6.2593 22.5882 3.13579 35.68C3.08222 35.9063 2.89092 36.8661 2.56342 38.5596Z" fill="#006CA6"/>
  <path d="M91.9071 39.3357C91.4005 39.5756 90.9062 39.3144 90.6246 38.8892C90.5404 38.7616 90.4532 38.4669 90.366 38.0037C89.4799 33.3153 88.0061 29.0354 85.9432 25.1625C83.3293 20.2554 79.7497 15.9117 75.2045 12.1315C70.6485 8.34213 65.4911 5.5643 59.7354 3.80101C56.6792 2.86393 53.5878 2.28983 50.4582 2.07568C49.7527 2.0286 49.3731 1.7051 49.3196 1.10671C49.2629 0.488567 49.7603 -0.0414819 50.3617 0.00256243C54.7953 0.319985 59.065 1.25555 63.1726 2.81077C66.5899 4.10324 69.9002 5.76629 72.9043 7.81815C79.1605 12.092 84.2307 17.5049 87.7322 24.1783C90.0568 28.6116 91.6393 33.297 92.4794 38.2346C92.5667 38.7449 92.3754 39.1124 91.9071 39.3357Z" fill="#006CA6"/>
  <path d="M40.4297 9.47052C40.494 9.55557 40.6118 9.5829 40.7082 9.53582C42.8875 8.4742 45.4463 7.92441 47.8536 8.2798C49.2355 8.48332 50.6924 8.83111 51.9734 9.49937C52.0331 9.53127 52.108 9.51912 52.1555 9.46748C52.4034 9.19562 52.5917 8.95414 52.8579 8.77037C54.3041 7.7695 56.0396 8.65797 56.8874 9.99601C57.6909 11.2642 57.3435 12.6144 56.1406 13.4375C56.0365 13.5074 55.9998 13.6411 56.0518 13.755C57.6955 17.321 57.6649 21.1073 54.7985 24.0294C53.314 25.5421 51.5357 26.5491 49.4635 27.0488C48.5132 27.2781 46.9522 27.5606 45.6162 27.4376C43.9496 27.2842 42.4835 26.944 41.2194 26.4139C38.6238 25.328 36.4231 22.9876 35.5952 20.3115C34.9662 18.2733 35.5279 15.7233 36.4997 13.7884C36.5425 13.7018 36.518 13.5985 36.44 13.5423C36.091 13.2887 35.7972 12.9895 35.56 12.6463C34.9632 11.7821 35.0198 10.8966 35.5677 10.0036C36.6558 8.22513 39.034 7.66622 40.4297 9.47052Z" fill="#006CA6"/>
  <path d="M51.7609 25.3766C47.7252 27.5272 43.1019 27.1779 39.4443 24.4639C38.546 23.7971 37.7961 22.9724 37.1916 21.9868C35.6842 19.5248 35.8892 16.7166 37.3079 14.2046C39.5239 10.2801 43.7049 8.46818 48.1354 9.14251C50.7906 9.54651 52.8964 10.8116 54.4528 12.9394C57.6635 17.3332 56.629 22.7826 51.7609 25.3766Z" fill="#020234"/>
  <path d="M43.5013 15.1402C44.4088 15.6581 44.5404 16.6437 44.2894 17.5945C44.2145 17.8755 43.9971 18.3326 43.636 18.9629C42.909 20.2311 41.798 22.3285 39.9447 21.2699C38.0914 20.2113 39.3616 18.2035 40.1023 16.9429C40.4696 16.3172 40.7588 15.9011 40.9654 15.696C41.6694 15.0035 42.5938 14.6207 43.5013 15.1402Z" fill="#006CA6"/>
  <path d="M53.3965 18.6211C54.3882 20.5742 52.5472 22.3132 50.6633 21.1529C50.6005 21.1149 50.4276 20.9327 50.1414 20.6031C49.6685 20.0594 49.1589 19.1937 48.9278 18.8687C48.3937 18.1138 48.1886 17.4957 48.1703 16.668C48.1412 15.4256 49.1421 14.7224 50.3189 14.9685C50.9678 15.1036 51.4866 15.4651 51.8753 16.0498C52.4844 16.9641 52.991 17.8207 53.3965 18.6211Z" fill="#006CA6"/>
  <path d="M49.4374 17.7555C49.4728 17.3318 49.8845 17.019 50.3582 17.058C50.8318 17.0964 51.1868 17.4716 51.1518 17.8954C51.1164 18.319 50.7047 18.6319 50.231 18.5929C49.7574 18.5545 49.4024 18.1793 49.4374 17.7555Z" fill="#020234"/>
  <path d="M41.3753 17.7297C41.4305 17.3226 41.8544 17.0416 42.3224 17.1043C42.791 17.1661 43.1262 17.5473 43.0712 17.9543C43.016 18.3614 42.592 18.6424 42.124 18.5796C41.6554 18.5178 41.3203 18.1366 41.3753 17.7297Z" fill="#020234"/>
  <path d="M50.8196 17.8241C50.8362 18.079 50.5943 18.3023 50.2778 18.3226C49.9607 18.3433 49.6913 18.1535 49.6742 17.8996C49.6576 17.6446 49.8995 17.4213 50.2161 17.4011C50.5331 17.3803 50.8025 17.5702 50.8196 17.8241Z" fill="#006CA6"/>
  <path d="M41.7234 17.8454C41.7491 17.6235 42.0032 17.4701 42.2926 17.5031C42.5817 17.5354 42.7945 17.742 42.7697 17.9636C42.744 18.1855 42.4899 18.3389 42.2005 18.3059C41.9113 18.2736 41.6986 18.067 41.7234 17.8454Z" fill="#006CA6"/>
  <path d="M58.1621 20.2112C58.1805 20.1641 58.2493 20.1641 58.2662 20.2127C60.1409 25.2505 59.1523 30.914 55.7012 35.0131C55.1656 35.6495 54.4861 36.219 53.6643 36.7218C52.8241 37.2351 51.8416 37.3399 50.8943 37.3612C49.6302 37.3885 48.6018 36.8691 49.0701 35.446C49.2262 34.9691 49.7435 34.3221 49.9026 33.7495C50.2485 32.5102 49.8735 31.081 48.9369 30.2017C48.2467 29.5532 47.3561 29.2509 46.2634 29.295C44.6702 29.3572 43.1796 30.1181 42.771 31.6703C42.5491 32.5163 42.5445 33.2848 42.7588 33.9758C42.9042 34.4497 43.5148 35.2941 43.527 36.052C43.5377 36.743 43.0557 37.2032 42.3639 37.2533C40.8932 37.3566 39.2358 37.226 37.9733 36.2889C37.3382 35.8181 36.7735 35.2622 36.2822 34.6213C34.784 32.6666 33.8443 30.4234 33.4648 27.8886C33.2199 26.2559 33.2046 24.7493 33.4204 23.3687C33.5979 22.2388 33.8703 21.4976 34.2881 20.3266C34.308 20.2704 34.3876 20.272 34.4059 20.3282C34.8314 21.648 35.4742 22.8615 36.3342 23.9717C39.242 27.72 43.8301 29.0839 48.461 28.4217C51.1422 28.0374 53.4087 26.9227 55.262 25.0774C56.292 24.0522 57.0663 22.904 57.5836 21.6358C57.9019 20.8567 58.0948 20.3813 58.1621 20.2112Z" fill="#006CA6"/>
  <path d="M46.2377 24.0295C46.0128 24.0265 45.7801 24.1131 45.5598 24.1829C44.5007 24.5216 43.6299 24.1647 43.0055 23.2094C42.9198 23.0788 42.8969 22.9375 42.9367 22.7872C42.9627 22.6885 43.0882 22.6566 43.1601 22.7295C43.6085 23.1821 44.0783 23.6058 44.7058 23.6453C45.2399 23.6802 46.1 23.4554 46.0051 22.7416C45.9255 22.1326 44.7762 21.6724 44.3936 21.1332C44.1243 20.7535 44.3033 20.4012 44.7716 20.3587C45.0394 20.3359 45.5445 20.3283 46.2867 20.3374C47.0305 20.348 47.5355 20.3678 47.8018 20.3997C48.2685 20.4528 48.4384 20.8097 48.1583 21.1834C47.762 21.7119 46.6004 22.1417 46.5055 22.7477C46.3908 23.46 47.2447 23.706 47.7803 23.6863C48.4078 23.6635 48.8883 23.2519 49.349 22.8115C49.424 22.7401 49.5479 22.7766 49.5709 22.8753C49.6076 23.0271 49.5801 23.1669 49.4913 23.2945C48.8409 24.2331 47.9609 24.5672 46.9126 24.2012C46.6938 24.1252 46.4627 24.0326 46.2377 24.0295Z" fill="#006CA6"/>
  <path d="M8.97865 51.2792C8.83326 51.3202 8.44455 51.3324 7.8125 51.3142C7.64416 51.3096 7.40695 51.3491 7.27074 51.2139C7.23401 51.1775 7.20953 51.1304 7.20035 51.0788C7.17127 50.8995 7.15749 50.6292 7.15596 50.2693C7.14984 47.3471 7.14831 45.0948 7.15137 43.5122C7.15137 43.2282 7.28145 43.0839 7.54162 43.0794C8.89754 43.0581 9.95504 43.0748 10.7141 43.131C12.4358 43.2556 13.6968 44.419 13.7075 46.1731C13.7152 47.5431 12.9041 48.5014 11.64 48.9464C11.0049 49.1697 10.2045 49.077 9.31533 49.0709C9.2281 49.0694 9.1577 49.1393 9.1577 49.2259V51.0438C9.1577 51.1532 9.08425 51.2489 8.97865 51.2792ZM9.13781 45.1647L9.17301 47.1482C9.17454 47.2545 9.2633 47.3395 9.37043 47.338L10.4754 47.3183C11.1212 47.3077 11.6369 46.7837 11.6247 46.1504L11.6232 46.0775C11.6124 45.4426 11.0799 44.9384 10.4325 44.949L9.32758 44.9687C9.22045 44.9703 9.13628 45.0584 9.13781 45.1647Z" fill="#006CA6"/>
  <path d="M18.0375 43.04C18.3788 43.04 18.6282 43.0476 18.7874 43.0628C18.8976 43.0734 18.994 43.1357 19.0475 43.2313C19.1409 43.3984 19.2327 43.5928 19.3261 43.8161C20.2106 45.9606 21.0814 48.1111 21.9384 50.2663C22.0502 50.5488 22.142 50.8267 22.2139 51.1001C22.2415 51.2018 22.1634 51.3006 22.0578 51.3006H20.5228C20.3882 51.3006 20.2673 51.2201 20.2152 51.0955L19.828 50.1797C19.7821 50.0704 19.675 49.999 19.5556 49.9975C19.1195 49.9929 18.6129 49.9899 18.0375 49.9899C17.4605 49.9899 16.9555 49.9929 16.5178 49.9975C16.3984 49.999 16.2913 50.0704 16.2454 50.1797L15.8582 51.0955C15.8062 51.2186 15.6853 51.3006 15.5506 51.2991H14.0156C13.91 51.2991 13.8335 51.2003 13.8595 51.0986C13.9315 50.8252 14.0233 50.5473 14.135 50.2648C14.9936 48.1096 15.8643 45.9606 16.7504 43.8161C16.8423 43.5928 16.9356 43.3984 17.029 43.2313C17.0825 43.1357 17.1789 43.0734 17.2891 43.0628C17.4483 43.0476 17.6977 43.04 18.0375 43.04ZM17.0412 48.1187C17.0121 48.1947 17.0688 48.2767 17.1514 48.2767L18.8471 48.2737C18.9297 48.2737 18.9863 48.1916 18.9557 48.1142L18.1048 45.9454C18.0666 45.8451 17.9242 45.8451 17.886 45.9454L17.0412 48.1187Z" fill="#006CA6"/>
  <path d="M28.5953 47.4749C28.6596 47.5462 28.7789 47.5022 28.7789 47.4065V43.3256C28.7789 43.195 28.8845 43.0902 29.0161 43.0902H30.4685C30.6384 43.0902 30.7761 43.2269 30.7761 43.3954V51.0288C30.7761 51.1366 30.7011 51.2293 30.5955 51.2536C30.0675 51.3781 29.3819 51.5193 28.9779 51.0273C28.0122 49.8532 26.9073 48.4438 25.6615 46.802C25.6019 46.7231 25.5437 46.6729 25.4901 46.6502C25.4473 46.6335 25.4014 46.6654 25.4014 46.7109C25.4259 47.9396 25.4458 49.1895 25.4611 50.4592C25.4672 50.9999 25.4932 51.2551 24.8811 51.293C24.4204 51.3219 24.021 51.3158 23.6828 51.2779C23.5496 51.2627 23.4486 51.1518 23.4486 51.0181V43.3271C23.4486 43.1874 23.5619 43.075 23.7027 43.075H24.9668C25.0081 43.075 25.0479 43.0871 25.0815 43.1084C25.3034 43.2557 25.5085 43.4638 25.6937 43.7326C26.6058 45.0494 27.5699 46.3403 28.5953 47.4749Z" fill="#006CA6"/>
  <path d="M54.3913 46.6424C54.3637 46.6865 54.3469 46.7199 54.3408 46.7412C53.9413 48.0731 53.5174 49.4096 53.069 50.7537C52.9787 51.0226 52.8731 51.1987 52.7492 51.2807C52.7017 51.3126 52.6451 51.3293 52.5885 51.3309L51.3029 51.3537C51.1912 51.3567 51.0917 51.2853 51.0565 51.179L48.5207 43.3588C48.4717 43.21 48.5834 43.0581 48.7411 43.0581H50.2868C50.4505 43.0581 50.5928 43.1644 50.6388 43.3194C51.2478 45.3986 51.6656 46.7913 51.8906 47.4975C51.9197 47.5871 51.961 47.6509 52.0146 47.6919C52.0727 47.7375 52.16 47.7101 52.1814 47.6403L53.522 43.2723C53.5557 43.1629 53.6582 43.087 53.773 43.087H55.0248C55.1901 43.087 55.3401 43.1857 55.4044 43.3376C55.4763 43.5046 55.6156 43.9345 55.8237 44.6255C56.2491 46.0395 56.5919 47.0403 56.8521 47.6281C56.8812 47.6934 56.924 47.7299 56.9807 47.7359C57.0159 47.7405 57.048 47.7192 57.0587 47.6858L58.3901 43.3437C58.4361 43.1918 58.5769 43.0885 58.7375 43.0885H60.1608C60.3031 43.0885 60.4225 43.1948 60.4393 43.3346C60.4531 43.4576 60.4286 43.6216 60.3643 43.8266C59.5548 46.3918 58.8829 48.7657 58.0274 51.1091C57.9754 51.2519 57.8377 51.3461 57.6846 51.3461H56.4098C56.2461 51.3461 56.1007 51.2413 56.0502 51.0863L54.6178 46.6682C54.5841 46.5665 54.4464 46.5513 54.3913 46.6424Z" fill="#006CA6"/>
  <path d="M66.7126 51.3051C66.5932 51.3051 66.4952 51.2079 66.4952 51.0894V43.4302C66.4952 43.2495 66.636 43.0992 66.8166 43.0855C67.1548 43.0597 67.5711 43.0566 68.0669 43.0749C68.3608 43.0855 68.5077 43.2556 68.5092 43.5882C68.5138 45.4214 68.5123 47.3001 68.5062 49.2244C68.5046 49.3352 68.5949 49.4248 68.7066 49.4248H71.3955C71.5271 49.4248 71.6327 49.5296 71.6327 49.6587V51.1274C71.6327 51.2261 71.5516 51.3051 71.4522 51.3051H66.7126Z" fill="#006CA6"/>
  <path d="M82.4237 46.1488C82.4619 46.1488 82.4941 46.1245 82.5231 46.0744C83.2088 44.8457 83.7031 43.9709 84.0061 43.4469C84.1515 43.1933 84.2816 43.0748 84.5922 43.0702C85.1631 43.0596 85.6604 43.0611 86.0874 43.0718C86.2588 43.0763 86.3629 43.2601 86.2772 43.4074L83.524 48.1414C83.4674 48.2386 83.4368 48.3495 83.4368 48.4604V50.9147C83.4368 51.0772 83.322 51.2184 83.1598 51.2519C83.0067 51.2838 82.7649 51.3005 82.4329 51.302C82.1023 51.302 81.859 51.2868 81.7059 51.2549C81.5452 51.2215 81.4289 51.0818 81.4289 50.9177L81.4197 48.4634C81.4197 48.3525 81.3891 48.2432 81.331 48.146L78.561 43.4211C78.4753 43.2738 78.5793 43.0885 78.7507 43.0839C79.1762 43.0718 79.6751 43.0702 80.2459 43.0778C80.5566 43.0809 80.6867 43.1993 80.8321 43.453C81.1381 43.9754 81.6355 44.8487 82.3257 46.0744C82.3533 46.1245 82.3869 46.1488 82.4237 46.1488Z" fill="#006CA6"/>
  <path d="M32.8359 43.4196C32.8344 43.2601 32.9644 43.1295 33.1251 43.1295L36.016 43.1143C38.333 43.1022 40.22 44.8366 40.2307 46.9872L40.2338 47.4185C40.2445 49.5706 38.3759 51.3248 36.0589 51.3369L33.168 51.3521C33.0073 51.3521 32.8772 51.2245 32.8757 51.0651L32.8359 43.4196ZM34.8591 45.195L34.8529 49.238C34.8529 49.3382 34.934 49.4187 35.0335 49.4187L36.0222 49.4202C37.222 49.4233 38.1968 48.471 38.1984 47.2955V47.1497C38.1999 45.9742 37.2296 45.0189 36.0313 45.0158L35.0427 45.0143C34.9417 45.0143 34.8591 45.0948 34.8591 45.195Z" fill="#006CA6"/>
  <path d="M43.9404 44.9431C43.87 44.9431 43.8119 45.0008 43.8119 45.0706V46.1368C43.8119 46.2219 43.8823 46.2917 43.968 46.2917H46.7165C46.8328 46.2917 46.9262 46.3859 46.9262 46.5013V47.7649C46.9262 47.9214 46.7992 48.0489 46.6416 48.0489H43.9634C43.8777 48.0489 43.8088 48.1188 43.8088 48.2039V49.3095C43.8088 49.3946 43.8777 49.4629 43.9634 49.4629H47.0471C47.2231 49.4629 47.3731 49.589 47.4006 49.7621C47.4634 50.1524 47.4634 50.558 47.3976 50.9787C47.3394 51.3507 47.1022 51.3037 46.7487 51.3082C45.1311 51.3265 43.6068 51.3295 42.1759 51.3158C41.7321 51.3128 41.8254 50.7888 41.8285 50.5078C41.8438 48.5213 41.8423 46.2659 41.8224 43.7402C41.8208 43.5412 41.8407 43.3803 41.8821 43.2542C41.9096 43.1722 41.9877 43.116 42.0749 43.1145C43.7354 43.0886 45.3377 43.075 46.8803 43.0765C47.2705 43.0765 47.4037 43.2071 47.4251 43.5868C47.445 43.9543 47.4419 44.3204 47.4175 44.6834C47.4067 44.8292 47.2843 44.9431 47.1374 44.9431H43.9404Z" fill="#006CA6"/>
  <path d="M64.0577 51.0109C64.0574 51.1623 63.9334 51.2853 63.7797 51.2848L62.2861 51.2796C62.1337 51.2792 62.0097 51.1562 62.0101 51.0038L62.0369 43.3674C62.0373 43.2161 62.1612 43.093 62.3149 43.0935L63.8085 43.0987C63.961 43.0991 64.0849 43.2221 64.0846 43.3745L64.0577 51.0109Z" fill="#006CA6"/>
  <path d="M78.1308 49.4887C78.3114 49.8881 78.2639 50.4319 78.2303 51.0895C78.2242 51.2171 78.1186 51.3158 77.99 51.3158H73.5045C73.3315 51.3158 73.1923 51.1776 73.1923 51.006V43.4091C73.1923 43.2314 73.3376 43.0871 73.5167 43.0871H74.9292C75.0869 43.0871 75.2154 43.2147 75.2154 43.3711V49.2138C75.2154 49.3216 75.3042 49.4097 75.4128 49.4097H78.0069C78.0604 49.4097 78.1094 49.4401 78.1308 49.4887Z" fill="#006CA6"/>
  <path d="M90.3921 53.4708C90.6814 51.8958 92.7963 52.3818 92.4581 53.9234C91.8873 56.5174 91.2843 58.9642 90.3814 61.4383C88.2741 67.2005 85.0128 72.6043 80.7629 77.1104C76.1427 82.0085 70.8154 85.7371 64.7796 88.2962C61.2077 89.8104 57.3465 90.8766 53.1977 91.4978C47.6745 92.324 42.0917 92.1311 36.4522 90.9176C26.7909 88.8399 18.233 83.7019 11.7533 76.3814C10.2581 74.6941 8.55023 72.4767 7.34123 70.601C4.0708 65.5313 1.84103 59.9818 0.654979 53.9538C0.58305 53.5938 0.566216 53.0364 0.841686 52.7524C1.3712 52.2072 2.13333 52.2679 2.52052 52.9104C2.61387 53.0668 2.70416 53.366 2.78987 53.8049C3.93459 59.6476 6.09091 64.9542 9.25727 69.7247C12.9271 75.2515 17.5596 79.7896 23.1532 83.3404C32.5696 89.3168 44.2801 91.1819 55.1397 89.0875C62.2575 87.713 68.5979 84.8137 74.1593 80.3864C78.5072 76.9267 82.4356 72.5465 85.1123 67.7488C86.632 65.0256 87.7583 62.6275 88.4944 60.5513C89.3163 58.2367 89.9483 55.8765 90.3921 53.4708Z" fill="#006CA6"/>
  <path d="M40.6762 77.9535C40.6594 77.8882 40.6211 77.8441 40.5584 77.8214C40.4941 77.7971 40.436 77.87 40.4758 77.9262C40.4972 77.9581 40.5324 77.9824 40.5814 78.0006C40.7329 78.3241 40.8339 78.5291 40.8844 78.6157C41.3006 79.3447 41.0114 80.1223 40.0763 80.0615C39.706 80.0388 39.4994 80.0205 39.455 80.0084C37.1931 79.3827 35.3903 78.1282 33.8125 76.4514C33.5906 76.216 33.1146 75.5933 32.3816 74.5834C32.3555 74.5484 32.328 74.518 32.2959 74.4907C32.0923 74.316 31.8842 74.1885 31.6715 74.1065C31.6118 74.0837 31.546 74.1277 31.546 74.1915C31.5552 75.2121 31.8796 76.2312 32.2331 77.1167C32.3663 77.4462 32.3816 77.6786 32.2821 77.8107C32.0495 78.119 31.8077 78.2162 31.3991 78.1874C30.3416 78.113 29.3575 77.6786 28.4454 76.8858C26.6181 75.2972 25.7994 73.2635 25.3081 70.8973C25.279 70.756 25.2148 70.627 25.1229 70.5176C24.9362 70.2959 24.7051 70.0741 24.4281 69.8539C23.4839 69.1021 22.3728 68.2835 21.095 67.395C20.4094 66.9196 19.9579 66.5597 19.7391 66.3152C19.3167 65.8413 18.5882 64.8754 18.6219 64.2481C18.6311 64.0932 18.7856 63.9884 18.9325 64.0385C19.4406 64.2101 19.9564 64.3301 20.4798 64.3985C20.5838 64.4121 20.6848 64.4364 20.7828 64.4714C21.1837 64.6172 21.6536 64.7964 22.1907 65.009C22.7463 65.2292 23.3003 65.4039 23.8497 65.53C24.4955 65.6788 24.7205 64.9012 24.0287 64.7053C23.4502 64.5412 23.0646 64.4774 22.4846 64.242C21.2526 63.7424 20.0972 63.1637 19.0167 62.5061C18.0709 61.932 18.5301 60.8339 19.2616 60.3388C19.8768 59.9211 20.5609 59.6083 21.3031 59.4291C23.6767 58.8565 25.9432 58.7274 28.1011 59.0448C30.1503 59.3455 32.1474 59.9667 34.0941 60.9068C35.6581 61.6616 37.2069 62.5927 38.8413 63.3596C40.4406 64.1099 41.8455 64.0598 43.558 63.466C45.0593 62.9465 47.1758 62.2464 48.7169 62.743C49.2112 62.9025 49.3887 63.3536 49.0031 63.7393C48.8684 63.8745 48.4261 64.2405 47.6777 64.8389C47.488 64.9893 47.2447 65.3568 46.9462 65.9385C46.3616 67.0821 47.0151 68.5812 47.9915 69.3314C50.1662 71.0036 52.7831 71.5169 55.4858 71.1433C57.815 70.8214 60.2759 69.7202 61.5446 67.7504C61.8644 67.2538 62.1567 66.669 61.8981 66.1147C61.8797 66.0767 61.6869 65.7289 61.3181 65.0683C60.8513 64.2314 60.6141 63.2837 60.6049 62.2266C60.5927 60.6851 61.1268 59.3744 62.2057 58.2945C62.3327 58.167 62.4674 58.0986 62.6067 58.0895C62.7673 58.0789 62.9112 58.2034 62.9387 58.3765C63.0887 59.3197 63.4132 60.0199 64.111 60.7063C64.717 61.3032 65.32 61.976 65.623 62.8144C65.7807 63.2457 65.7592 63.8016 65.7975 64.2891C65.8021 64.3559 65.8725 64.4 65.9368 64.3742C67.5911 63.7135 69.1291 63.9261 70.5509 65.0121C71.4324 65.6834 72.1394 66.2271 73.3591 66.1648C73.7907 66.1435 74.2881 66.0767 74.8528 65.9643C75.0318 65.9294 75.1803 66.0995 75.1191 66.2696C75.0716 66.4002 74.9798 66.546 74.8421 66.707C72.9872 68.8864 70.329 69.8341 67.5253 69.1841C66.8412 69.0246 66.1449 68.8925 65.4363 68.7847C64.7369 68.6799 64.2732 68.9335 63.7575 69.4879C62.6571 70.671 61.8904 71.4668 61.4573 71.8754C60.4855 72.7958 59.4388 73.6584 58.317 74.4618C56.0275 76.1021 53.4733 77.182 50.8487 77.7044C49.3673 77.9975 47.7512 78.1449 45.9989 78.1464C44.0079 78.1479 42.2847 78.078 40.8308 77.9398C40.7818 77.9353 40.7298 77.9398 40.6762 77.9535Z" fill="#006CA6"/>
  <path d="M27.3238 64.0138C27.5378 63.4735 28.5111 63.3475 29.4966 63.732C30.4822 64.1175 31.1066 64.8677 30.8921 65.4088C30.6781 65.9491 29.7048 66.0752 28.7192 65.6906C27.7336 65.3051 27.1092 64.5549 27.3238 64.0138Z" fill="#020234"/>
  <path d="M31.2596 73.0251C31.2826 73.0858 31.2244 73.1466 31.1632 73.1268C30.5495 72.937 29.9496 72.6682 29.3635 72.3204C28.1927 71.6293 27.0816 70.8851 26.0272 70.0893C23.7393 68.3594 21.9671 67.0047 20.7107 66.0251C20.4184 65.7973 20.1689 65.5619 19.9623 65.3204C19.9332 65.287 19.9608 65.2353 20.0052 65.2414C20.4689 65.3113 20.8652 65.3204 21.2861 65.4161C22.593 65.7122 24.1127 65.8702 25.8466 65.8884C26.9363 65.9005 27.6112 66.6159 28.1805 67.4755C29.3941 69.2995 30.548 71.0947 31.2596 73.0251Z" fill="#020234"/>
  <path d="M40.2293 79.1532C40.2599 79.2246 40.2063 79.3036 40.1283 79.3021C39.7227 79.296 39.2743 79.1882 38.78 78.9786C37.0736 78.2571 35.6534 77.2821 34.5194 76.0534C34.2899 75.8043 33.6394 74.9143 32.5682 73.3849C32.2774 72.9688 31.8122 72.0378 31.7418 71.3801C31.7219 71.1873 31.8198 71.0005 31.9912 70.9063C33.7741 69.9388 35.759 71.125 36.9589 72.4661C37.2098 72.747 37.3782 72.984 37.4623 73.1799C37.4884 73.2406 37.5052 73.3059 37.5113 73.3728C37.5649 73.8998 37.6338 74.2795 37.7149 74.5119C38.2979 76.1749 39.5238 77.5069 40.2293 79.1532Z" fill="#020234"/>
  <path d="M58.5697 73.11C58.5069 73.2087 58.4105 73.3166 58.2789 73.4305C57.578 74.0365 56.7898 74.5711 55.9129 75.0328C53.0251 76.5515 49.8878 77.3307 46.498 77.3717C45.2431 77.3869 43.8443 77.3474 42.3001 77.2517C41.6773 77.2137 41.0391 77.1135 40.3856 76.954C40.078 76.8796 39.8883 76.7642 39.7107 76.4908C39.3465 75.9364 39.0159 75.3502 38.719 74.7305C38.5936 74.4678 38.5262 74.202 38.5186 73.9317C38.5155 73.7995 38.6134 73.6856 38.7466 73.6704C38.967 73.6461 39.1935 73.678 39.4276 73.7646C41.4844 74.5285 43.4571 74.9751 45.3471 75.1072C49.6613 75.4064 53.8637 74.7427 57.7402 72.8214C57.9835 72.7015 58.2391 72.7197 58.51 72.8761C58.5926 72.9232 58.6186 73.0295 58.5697 73.11Z" fill="#020234"/>
  <path d="M40.676 77.9533L40.5811 78.0004C40.5322 77.9822 40.497 77.9579 40.4755 77.926C40.4357 77.8698 40.4939 77.7969 40.5582 77.8212C40.6209 77.844 40.6592 77.888 40.676 77.9533Z" fill="#020234"/>
</svg>